<svg xmlns="http://www.w3.org/2000/svg" xmlns:xlink="http://www.w3.org/1999/xlink" width="81.277" height="75.052" viewBox="0 0 81.277 75.052"><defs><clipPath id="a"><rect width="81.277" height="75.052" fill="#ae8b5c"/></clipPath></defs><g clip-path="url(#a)"><path d="M91.464,101.7c.707-.9,1.29-1.687,1.911-2.439a17.567,17.567,0,0,1,30.954,8.357c1.017,7.035-.588,13.308-5.934,18.328q-11.67,10.955-23.338,21.911a5.262,5.262,0,0,1-7.206-.021c-7.742-7.259-15.513-14.488-23.2-21.806-6.558-6.243-7.78-13.865-5.024-22.171,2.081-6.273,8.492-10.7,15.059-11.015a17.548,17.548,0,0,1,15.495,7.213c.4.515.8,1.03,1.284,1.644m0,3.266c-1.125-1.415-2.165-2.75-3.233-4.062a15.39,15.39,0,0,0-11.953-6.077c-6.668-.2-13.165,4.113-15.026,10.49-2.169,7.43-.764,14.128,5.018,19.571,7.6,7.154,15.254,14.252,22.885,21.373a3.2,3.2,0,0,0,4.624,0Q105.224,135.633,116.655,125a21.808,21.808,0,0,0,2.715-3.111,18.079,18.079,0,0,0,3.149-12.518c-.489-6.011-3.431-10.493-8.914-13.073a15.323,15.323,0,0,0-18.787,4.45c-1.1,1.364-2.183,2.742-3.355,4.216" transform="translate(-50.922 -81.141)" fill="#ae8b5c"/></g></svg>