<svg xmlns="http://www.w3.org/2000/svg" xmlns:xlink="http://www.w3.org/1999/xlink" width="60.069" height="60" viewBox="0 0 60.069 60"><defs><clipPath id="a"><rect width="60.069" height="60" fill="#ae8b5c"/></clipPath></defs><g clip-path="url(#a)"><path d="M15.749,11.842c-.444.143-.81.262-1.176.379a20.559,20.559,0,0,0-2.915,38.194A20.442,20.442,0,0,0,18.4,52.289c.532.055,1.038-.016,1.135-.66.1-.678-.391-.9-.934-1.028-.33-.075-.669-.106-1-.157A18.768,18.768,0,0,1,23.664,13.4a18.794,18.794,0,0,1,6.207,34.951c-.541.32-.946.7-.589,1.387.273.523.8.583,1.494.2A20.76,20.76,0,0,0,41.11,29.074c-1.362-8.628-6.369-14.212-14.568-17.029-.29-.1-.579-.2-.934-.326.163-.272.286-.493.425-.7,1.234-1.873,2.458-3.752,3.714-5.61a1.126,1.126,0,0,0-.118-1.6C28.565,2.687,27.542,1.534,26.456.444A1.609,1.609,0,0,0,25.43.024q-4.775-.047-9.551,0A1.725,1.725,0,0,0,14.8.514C13.77,1.544,12.788,2.628,11.794,3.7a1.238,1.238,0,0,0-.167,1.878c.912,1.4,1.841,2.784,2.76,4.177.442.67.878,1.345,1.363,2.089m3.022,27.044c.167,4.425,1.034,8.378,3.415,11.829,4.915,7.125,11.753,10.161,20.32,9.066A20.252,20.252,0,0,0,60.048,38.534a20.078,20.078,0,0,0-8.783-16.017,20.487,20.487,0,0,0-5.655-2.8c-.61-.2-1.137-.081-1.368.516-.249.644.176,1.022.747,1.241.243.093.491.172.737.259a18.7,18.7,0,0,1,9.1,28.48c-4.491,6.295-10.779,8.827-18.436,7.728A18.655,18.655,0,0,1,20.659,40.08c-.158-7.435,3.06-13.033,9.424-16.847a2.538,2.538,0,0,0,.882-.618,1.206,1.206,0,0,0,.137-1.034c-.142-.23-.64-.271-.993-.326-.153-.024-.34.113-.5.2a19.862,19.862,0,0,0-10.84,17.431" transform="translate(0.001 0.001)" fill="#ae8b5c"/><path d="M15.75,11.843c-.485-.744-.921-1.418-1.363-2.089-.919-1.393-1.848-2.78-2.76-4.177A1.238,1.238,0,0,1,11.795,3.7c.994-1.071,1.976-2.155,3.011-3.185A1.725,1.725,0,0,1,15.88.028q4.775-.056,9.551,0a1.61,1.61,0,0,1,1.026.42c1.086,1.09,2.109,2.243,3.171,3.356a1.126,1.126,0,0,1,.118,1.6c-1.255,1.858-2.48,3.737-3.714,5.61-.139.211-.261.432-.425.7.355.124.644.226.934.326,8.2,2.817,13.206,8.4,14.568,17.029A20.76,20.76,0,0,1,30.776,49.941c-.694.381-1.221.322-1.494-.2-.357-.685.048-1.067.589-1.387A18.8,18.8,0,1,0,1.98,29.963,18.6,18.6,0,0,0,17.6,50.445c.335.051.674.083,1,.157.543.123,1.035.349.934,1.028-.1.645-.6.715-1.135.66A20.409,20.409,0,0,1,.038,30.806,20.676,20.676,0,0,1,14.574,12.222c.366-.117.732-.236,1.176-.379m4.978-10c-.547,0-1.1-.005-1.642,0-1.04.012-2.221-.27-3.082.132-.891.416-1.472,1.5-2.189,2.287a1.286,1.286,0,0,1-.1.117.575.575,0,0,0-.082.877c1.277,1.935,2.521,3.892,3.81,5.818a1.033,1.033,0,0,0,.743.357c1.663.032,3.327.031,4.99,0a.949.949,0,0,0,.687-.32q1.952-2.925,3.828-5.9a.857.857,0,0,0-.057-.785A21.877,21.877,0,0,0,25.769,2.32a1.74,1.74,0,0,0-1.053-.46c-1.328-.054-2.658-.021-3.988-.021" transform="translate(0 0)" fill="#ae8b5c"/><path d="M153.681,179.957a19.862,19.862,0,0,1,10.84-17.431c.158-.087.346-.224.5-.2.353.055.851.1.993.326a1.206,1.206,0,0,1-.137,1.034,2.538,2.538,0,0,1-.882.618c-6.364,3.814-9.582,9.412-9.424,16.847A18.655,18.655,0,0,0,171.3,199.014c7.658,1.1,13.945-1.433,18.436-7.728a18.7,18.7,0,0,0-9.1-28.48c-.245-.087-.494-.166-.737-.259-.572-.22-1-.6-.747-1.241.231-.6.758-.717,1.368-.516a20.487,20.487,0,0,1,5.655,2.8,20.6,20.6,0,0,1-8.759,37.265c-8.566,1.095-15.4-1.941-20.319-9.066-2.381-3.451-3.248-7.4-3.415-11.829" transform="translate(-134.909 -141.07)" fill="#ae8b5c"/></g></svg>