<svg xmlns="http://www.w3.org/2000/svg" xmlns:xlink="http://www.w3.org/1999/xlink" width="632.125" height="474.47" viewBox="0 0 632.125 474.47"><defs><clipPath id="a"><rect width="632.125" height="474.47" transform="translate(0 0)" fill="none"/></clipPath></defs><g clip-path="url(#a)"><path d="M710.8,455.252c36.3-20.82,54.888-56.939,64.154-96.409,7.563-32.211,12.029-66.592,1.436-97.938-8.993-26.611-28.249-49.133-35.2-76.349-10.546-41.281,8.318-88.742-12.72-125.794C715.928,36.669,690.739,23.478,665.4,21.644c-13.531-.979-30.208.175-42.758,5.844-4.482,2.024-8.49,5.729-12.866,8.4a20.093,20.093,0,0,1-7.872,3.04c-9.526,1.229-21.876-4.882-30.93-7.351-25.351-6.916-51.062-13.432-77.456-14.334-41.155-1.407-86.432,14.376-105.361,50.947-8.221,15.881-11.092,34.785-22.862,48.249-15.284,17.483-36.9,18.835-58.155,18.149-36.743-1.185-76.1-1.993-92.012,38.428-9.353,23.761-6.5,50.412-2.336,75.606s9.519,50.937,4.738,76.022c-4.259,22.347-18.737,41.5-21.068,63.973a53.573,53.573,0,0,0,23.984,50.43c18.592,12.333,42.34,14.282,64.5,11.657s43.613-9.383,65.617-13.071a219.443,219.443,0,0,1,80.9,1.175c27.328,5.705,53.108,17,79.007,27.415,32.605,13.117,67.785,23.5,103.3,21.052,19.04-1.315,34.113-8.138,51.708-14.3,15.611-5.468,30.565-9.25,45.337-17.721" transform="translate(-150.534 -13.164)" fill="#f2f2f2"/><path d="M2168.1,1635.072c4.055,7.546,6.643,52.452,5.015,55.862s-9.95-2.238-10.393-7.951-.326-16.394-6.683-21.1-7.989-21.669-4.609-22.827,16.671-3.984,16.671-3.984" transform="translate(-1649.615 -1254.699)" fill="#f0b7b5"/><path d="M669.425,687.354c-8.008-2.195-44.951-33.231-97.071-11.893s-96.195,86.485-82.9,155.353,69.96,110.844,127.677,125.535S770.275,938.16,782.2,932.214s34.424-108.788,34.543-109.837S716.121,719.885,716.121,719.885Z" transform="translate(-373.752 -512.606)" fill="#f48f85"/><path d="M669.425,687.354c-8.008-2.195-44.951-33.231-97.071-11.893s-96.195,86.485-82.9,155.353,69.96,110.844,127.677,125.535S770.275,938.16,782.2,932.214s34.424-108.788,34.543-109.837S716.121,719.885,716.121,719.885Z" transform="translate(-373.752 -512.606)" fill="#6fccde"/><path d="M1398.7,1378.76c-16.344,11.968-32.494,26.655-44.642,42.94-13.383,17.941-23.436,38.312-34.919,57.471-1.085,1.81-2.1,3.653-3.106,5.5,47.3-5.5,94.172-22.041,102.3-26.092,10.069-5.021,31.816-81.052,37.125-104.633-19.422,1.332-41.284,13.481-56.754,24.809" transform="translate(-1009.879 -1038.976)" fill="#138396"/><path d="M905.763,907.909c3.073-4.071,1.525-11.328,1-17.737s-11.672-49.712,14.191-64.331a229.375,229.375,0,0,0,39.685-28.719l-16.885,54.635-14.167,36.991Z" transform="translate(-693.646 -611.684)" fill="#138396"/><path d="M1560.333,1092.561l-27.7-1.815-33.843,28.334-19.939,36.466,18.12,17.84s46.3,3.148,76.086-15.6l50.73,36.352c.644,3.7,9.57,13.356,12.718,14.405s14.184-.525,16.545-4.65,4.722-60.675,1.836-90.2-14.429-42.363-34.105-41.314-53.036,17.315-60.45,20.179" transform="translate(-1134.822 -822.864)" fill="#27324b"/><path d="M1353.024,1056.915c8.52,7.055,14.544,14.025,13.269,25.818-.705,6.522-3.881,12.471-6.719,18.385-9.071,18.906-15.168,39.073-21.229,59.148l-5.386,17.839c-1.35,4.473-2.708,8.951-3.752,13.508-.785,3.425-.512,6.885-1.4,10.2-1.839,6.882-6.11,13.7-11.974,17.81-1.423,1-3.13,1.88-4.832,1.525-2.344-.49-3.615-3.108-3.849-5.492s.2-4.832-.348-7.162c-1.121-4.731-6.2-7.71-11.064-7.832s-9.486,2.008-13.7,4.442c-4.5,2.6-10.064,7.25-15.48,7.054a17.461,17.461,0,0,1-10.517-4.051c-4.3-3.613-3.588-11.628-3.667-16.847-.107-7.055.473-14.1.743-21.144.355-9.255,1.4-25.982-5.212-33.594-2.723-3.136-8.833-3.541-12.754-4.155-5.89-.924-11.8-1.568-17.112-4.521-5.84-3.249-11.176-8.793-16.826-12.621-11.426-7.743-26.268-19.114-19.511-34.77,1.783-4.132,5.452-7.146,9.288-9.5,11.4-6.993,24.94-9.4,38.12-11.683l102.39-17.709c4.14-.716,8.367-1.433,12.52-.8,2.515.384,20.458-18.429,21.987-16.17,2.273,3.359-2.492,18.786-5.772,19.152-3.449.385-9.564,1.534-12.061,4.142-1.923,2.009-.654,4.142,1.2,5.969,1.206,1.191,2.66,2.251,3.64,3.063" transform="translate(-905.505 -786.09)" fill="#27324b"/><path d="M1098.643,792.064c-33.668,19.064-49.278,24.573-79.23,29.383-32.613,5.237-54.394-33.056-34.98-73.108s43.025-43.375,48.622-47.048,6.121-17.534,5.947-21.731l17.14,7.389c1.049,3.848-.525,4.722,3.148,5.947s22.387-1.224,33.231,2.8,28.509,15.391,38.828,37.953,15.216,30.957,14.866,33.23l-3.5,10.844Z" transform="translate(-749.802 -521.471)" fill="#27324b"/><path d="M1027.6,1282.411c-26.235-39.527-77.965-33.231-96.894-35.729l-22.474-1.175c-18.077-1.8-38.038,15.214-42.587,23.61-10.078,18.6,20.937,32.507,34.332,38.483,35.27,15.735,67.651,35.716,104.441,47.465,18.091,5.778,26.841-8.167,30.377-24.456,3.544-16.327,2.232-34-7.194-48.2" transform="translate(-662.747 -955.658)" fill="#6fccde"/><path d="M1542.161,966.758c-.368.258-.787.573-.8,1.023a1.4,1.4,0,0,0,.415.859l11.606,14.231a9.154,9.154,0,0,0,3.293,2.912,3.141,3.141,0,0,0,3.927-1c.312-.566-3.671-7-4.1-7.961a79.392,79.392,0,0,1-3.293-8.764c-1.85-5.971-2-12.148-3.465-18.1-.7.582-.259,3.333-.386,4.412a18.343,18.343,0,0,1-1.184,4.646,17.291,17.291,0,0,1-6.016,7.744" transform="translate(-1182.792 -728.964)" fill="#1d283a"/><path d="M1188.311,965.535c-.2-7.321-3.856-15.532-3.648-22.853,1.623,11.828,11.014,25.609,24.508,28.642,3.9.877,7.992.631,11.891,1.526a21.032,21.032,0,0,1,13.7,10.535c1.668,3.162,2.686,7.52.417,10.675-2.172,3.021-3.772,2.008-6.868,1.617-8.546-1.078-17.642-.153-26.279-.444-3.084-.1-9.682-2.086-10.961-5.05a15.175,15.175,0,0,1-.759-6.483c.166-5.855-1.8-10.525-2-18.165" transform="translate(-909.064 -723.382)" fill="#1d283a"/><path d="M1364.487,1189.074c-7.014,3.69-20.626-9.957-24.028-17.115-1.057-2.223,17.091-5.007,19.156-6.345a5.967,5.967,0,0,1,2.877-.7q11.236-.782,22.512-.5a36.37,36.37,0,0,1,10.151,1.287,13.614,13.614,0,0,1,7.983,6.053c3.095,5.663,5.3,10.378.447,10.938-7.186.829-20.149-3.581-39.1,6.389" transform="translate(-1028.589 -893.47)" fill="#1d283a"/><path d="M1501.189,1066.2l-33.581-18.735,84.1-33.158,14.626,13.5Z" transform="translate(-1126.193 -778.347)" fill="#d2edf3"/><rect width="1.85" height="38.453" transform="translate(340.963 269.929) rotate(-60.843)" fill="#56acb7"/><path d="M1694.226,844.891l-84.18,32.525,26.457-72.831a11.068,11.068,0,0,1,6.443-6.557L1723,767.356a1.722,1.722,0,0,1,2.235,2.2l-25.3,69.51a9.863,9.863,0,0,1-5.714,5.827" transform="translate(-1235.496 -588.752)" fill="#72cddf"/><path d="M1061.577,1246.49h-8.395c-4.432,6.486-26.069-7.258-16.372,2.538,24.591,24.839,70.065-2.538,95.857,10.079-26.075-13.627-57.293-10.8-71.09-12.617" transform="translate(-793.716 -955.658)" fill="#138396"/><path d="M918.519,1192.615l6.451.337,2.994-11.506s-7.083-8.77-20.988-2.474c-12,5.436-26.131,23.758-29.778,35.254,6.237-8.817,24.582-23.279,41.322-21.611" transform="translate(-673.132 -902.958)" fill="#138396"/><path d="M1035.854,892.4c-.875,5.772-2.623,14.866,2.869,15.916s61.843,2.8,61.319,4.372.671,9.147-1.4,10.319c-33.668,19.064-49.278,24.573-79.23,29.383-32.613,5.237-54.394-33.056-34.98-73.108,6.438-13.283,13.338-22.526,19.89-29.082Z" transform="translate(-749.802 -652.417)" fill="#27324b"/><path d="M1514.842,1113.381c3.477.652,6.284,3.152,8.79,5.65,1.06,1.057,3.8,4.573,1.8,5.87-1.207.785-2.686-.684-3.809-1.05a20.465,20.465,0,0,0-6.527-1.016l-10.575.14a5.7,5.7,0,0,1-3.614-.768c-2.63-2.028-1.146-6.3,1.294-7.372a28.161,28.161,0,0,1,12.64-1.454" transform="translate(-1150.68 -854.206)" fill="#f0b7b5"/><path d="M1719.839,1372.351a16.836,16.836,0,0,1-.613-5.421c.3-2.863,2.029-5.347,3.683-7.7,17.422-24.814,23.2-49,36.467-76.266,7.185-14.764,16.939-59.331,62.85-40.567,3.052,10.022-24.592,20.1-28.008,30a356.492,356.492,0,0,1-60.381,108.529c-2.06,2.53-6.724,7.234-10.346,4.412-2.724-2.124-2.935-9.8-3.652-12.984" transform="translate(-1319.24 -949.89)" fill="#1d283a"/><path d="M741.57,1132.99c-7.289,7.223-24.308,14.519-39.257,18.874-44.425,12.943-148.2-15.688-185.743-92.46-19.209-39.279-10.328-73.556-13.564-75.28-13.543,26.31-19.7,57.385-13.546,89.267,13.292,68.868,69.96,110.844,127.677,125.535,21.223,5.4,47.544,4.369,72.939.611,24.389-8.945,47.231-36.867,54.83-66.217,1.359-5.25.517-4.148-3.335-.331" transform="translate(-373.761 -755.184)" fill="#138396"/><path d="M2085.639,1101.691c33.712,28.727,24.341,95.984,22.706,102.087-2.463,9.2-1.239,17.85-18.729,7.535-12.936-7.629-21.861,7.42-30.782,14.988-8.651,7.338,16.616-55.953,16.616-55.953s-3.454-36.01,2.273-37.106c27.984-5.355,4.872-34.144,7.916-31.55" transform="translate(-1578.496 -845.274)" fill="#2f3a51"/><path d="M1654.575,1251.093c7.583-2.356,23.611-.787,27.547,11.543s-18.364,95.758-95.757,142.718-59.553,13.9-58.766,13.9,11.369-3.935,16.7-8.658,4.812-14.133,10.289-15.471c5.693-1.391,14.874-1.387,18.449-5.931,6.178-7.852,10.477-18.551,14.885-27.482a412.924,412.924,0,0,0,23.351-58c7.08-22.342,19.2-45.142,43.3-52.628" transform="translate(-1170.451 -959.337)" fill="#2f3a51"/><path d="M1870.766,1307.783c1.591-9.93,15.7-47.8,12.427-57.734-2.608-7.905-10.454-16.22-25.269-13.251-43.783,8.775-71.081,112.6-71.1,117.922,4.264-4.724,12.5-13.039,18.806-12.181,6.741.917,12.486,5.212,17.712,9.567s10.491,9.042,17,11.025c7.713,2.351,15.461-.359,19.12-7.578,3.694-7.287,10.817-44.723,11.3-47.769" transform="translate(-1371.15 -948.604)" fill="#27324b"/><path d="M1572.2,1855.294a.473.473,0,0,1-.238.246c-2.623.787-11.806,2.624-17.315,3.936s-4.985,10.756-10.319,15.478-15.916,8.657-16.7,8.657c-.768,0-17.741,31.442,53.3-10.634a45.23,45.23,0,0,1-8.726-17.684" transform="translate(-1170.473 -1423.69)" fill="#f0b7b5"/><path d="M1866.487,535.155H1625.65a3.7,3.7,0,1,1,0-7.4h240.837a3.7,3.7,0,1,1,0,7.4" transform="translate(-1244.629 -404.978)" fill="#dfa8a7"/><path d="M1841.931,224.734a6.482,6.482,0,0,1-5.585-9.752l45.147-77.133a6.478,6.478,0,0,1,11.182,6.545l-45.148,77.131a6.474,6.474,0,0,1-5.6,3.208" transform="translate(-1408.469 -103.32)" fill="#dcdbe1"/><path d="M1938.967,224.734a6.481,6.481,0,0,1-5.585-9.752l45.147-77.133a6.478,6.478,0,0,1,11.182,6.545l-45.147,77.131a6.473,6.473,0,0,1-5.6,3.208" transform="translate(-1482.931 -103.32)" fill="#dcdbe1"/><path d="M2140.279,330.307a6.482,6.482,0,0,1-6.26-4.823l-11.95-45.126a6.479,6.479,0,0,1,12.527-3.315l11.951,45.126a6.483,6.483,0,0,1-6.267,8.138" transform="translate(-1628.239 -208.893)" fill="#d5edf4"/><path d="M2371.568,395.707h-79.229a7.4,7.4,0,1,1,0-14.808h79.229a7.4,7.4,0,0,1,0,14.808" transform="translate(-1753.383 -292.288)" fill="#d5edf4"/><path d="M2371.568,466.69h-79.229a7.4,7.4,0,1,1,0-14.808h79.229a7.4,7.4,0,1,1,0,14.808" transform="translate(-1753.383 -346.758)" fill="#dcdbe1"/><path d="M1203.592,1465.7c-.049.563-.086,1.13-.086,1.705a19.283,19.283,0,0,0,38.566,0c0-.576-.037-1.143-.086-1.705Z" transform="translate(-923.53 -1124.727)" fill="#f0b7b5"/><path d="M1343.607,1486.287a.926.926,0,0,1-.081-1.847c9.018-.821,11.236-8.022,11.751-10.723h-5.947a.926.926,0,1,1,0-1.851h7.017a.923.923,0,0,1,.922,1c-.009.123-1.157,12.287-13.577,13.416-.027,0-.056,0-.085,0" transform="translate(-1030.33 -1129.46)" fill="#f0b7b5"/><path d="M1211.115,1467.4c0-.576.037-1.142.086-1.705h-7.608c-.049.563-.086,1.129-.086,1.705a19.281,19.281,0,0,0,23.087,18.9,19.286,19.286,0,0,1-15.478-18.9" transform="translate(-923.531 -1124.728)" fill="#dfa8a7"/><path d="M1453.428,332.056c-.059,1.368.294,3.007,1.569,3.508,1.214.477,2.515-.358,3.552-1.149,3.379-2.577,22.41-17.194,12.553-21.244-4.467-1.836-8.7,3.534-11.319,6.392-3.185,3.478-6.145,7.61-6.355,12.494" transform="translate(-1115.307 -240.029)" fill="#d2edf3"/><path d="M1530.4,322.556a17.052,17.052,0,0,0-5.345,4.948c-2.706,3.4-5.345,7.118-5.964,11.422a5.584,5.584,0,0,0,.234,3,2.617,2.617,0,0,0,2.334,1.671,4.086,4.086,0,0,0,2.667-1.74l10.112-11.481a13.328,13.328,0,0,0,2.51-3.577c1.968-4.767-2.99-6.034-6.548-4.243" transform="translate(-1165.629 -246.922)" fill="#d2edf3"/><path d="M1568.787,365.769a18.829,18.829,0,0,0-7.322,7.37c-1.614,2.842-4.514,10.678,1.71,7.329a24.541,24.541,0,0,0,3.68-2.767,30.042,30.042,0,0,1,12.521-6.008c1.716-.371,5.127-.7,5.733-2.77s-1.982-3.324-3.513-3.934a15.477,15.477,0,0,0-12.808.779" transform="translate(-1196.604 -279.289)" fill="#d2edf3"/><path d="M1733.327,107.262l.48-1.912a.252.252,0,0,0-.277-.312A197.641,197.641,0,0,1,1747.989.349a.252.252,0,0,0-.463-.2,199.369,199.369,0,0,0-14.377,105.827Z" transform="translate(-1328.537 0.004)" fill="#fff"/><path d="M1677.493,342.924a.252.252,0,0,0,.217-.38,60.591,60.591,0,0,0-17.181-18.63.252.252,0,0,0-.291.412,60.083,60.083,0,0,1,17.037,18.473.252.252,0,0,0,.218.124" transform="translate(-1273.93 -248.525)" fill="#fff"/><path d="M1628.044,381.319a.252.252,0,0,0,.2-.41,17.783,17.783,0,0,0-9.844-6.219,20.255,20.255,0,0,0-11.129.6.252.252,0,0,0,.161.478c7.652-2.584,15.667-.442,20.419,5.456a.251.251,0,0,0,.2.094" transform="translate(-1233.232 -287.13)" fill="#fff"/><path d="M1518.351,333.816a.252.252,0,0,0,.244-.318,43.885,43.885,0,0,0-17.679-24.618,42.5,42.5,0,0,0-15.605-6.56c-6.939-1.421-15.227-1.536-25.338-.352a.252.252,0,0,0,.059.5c22.748-2.667,32.958,1.707,40.6,6.83a43.373,43.373,0,0,1,17.473,24.331.252.252,0,0,0,.243.186" transform="translate(-1120.163 -231.098)" fill="#fff"/><path d="M1685.732,416.864v7.31c0,8.621-7.032,13-15.653,13s-15.61-4.383-15.61-13v-7.31a3.132,3.132,0,0,1,3.132-3.132h25a3.132,3.132,0,0,1,3.132,3.132" transform="translate(-1269.585 -317.483)" fill="#dfa8a7"/><path d="M1086.485,465.385a100.405,100.405,0,0,0-6.306-20.567,97.9,97.9,0,0,0-12.653-21.516c-5.106-6.567-12.943-9.986-20.863-12.318-15.248-4.491-37.651,7.786-40.813,23.412-2.077,10.266-2.158,20.95-1.225,31.674.285,3.273.669,6.546,1.116,9.812a67.051,67.051,0,0,1-.093,11.49c-1.253,11.216-6.9,21.437-13.048,30.9s-12.972,18.643-17.076,29.157a1.989,1.989,0,0,0,1.309,3.246c5.877,1.981,11.87,3.982,18.071,4.081a23.177,23.177,0,0,0,11.5-2.668c1.834-1.012,3.026-2.485,4.635-3.724a17.24,17.24,0,0,1,5.5-2.536c8.064-2.267,10.48,7.179,18.487,6.446l10.657-.976c1.489-.137,3.171-.379,4.031-1.6,1.087-1.546.231-3.647-.529-5.377,0-1.795-1.713-4.523-2.176-6.354a28.939,28.939,0,0,1-.586-5.422c-.337-4.756-1.192-9.519-1.838-14.248,4.52.418,9.1.828,13.575.058s19.064,1.23,23.882-20.789c1.252-5.722,5.942-7.267,6.776-9.39.42-1.069-.688-7-.78-8.433a77.054,77.054,0,0,0-1.557-14.356" transform="translate(-748.31 -314.655)" fill="#161f30"/><path d="M1522.357,1463.432l.189.306c3.361,11.064,3.071,22.811.6,34.2a62.062,62.062,0,0,1-2.414,8.384,109.429,109.429,0,0,1-20.667,36.792,7.694,7.694,0,0,0,1.581,1.884,17.463,17.463,0,0,0,10.517,4.052,14.313,14.313,0,0,0,6.746-1.779c14.1-37.076,6.89-79.057,3.449-83.84" transform="translate(-1151.099 -1122.988)" fill="#1d283a"/><path d="M1244.114,556.276a10.769,10.769,0,0,0-7.295-1.1c-3.723.867-6.973,3.381-10.233,5.637s-6.825,4.357-10.622,4.243c-.236-.007-.467-.064-.7-.09a19.593,19.593,0,0,0-.194,4.839c1.574,18.015,13.405,21.513,23.087,21.513s11.974-10.114,11.974-21.513a23.015,23.015,0,0,0-3.434-12.233c-.9-.371-1.777-.921-2.581-1.3" transform="translate(-932.35 -425.838)" fill="#f0b7b5"/><path d="M337.43,1532.372a.8.8,0,0,1-.7-.4c-6.994-12.16-14.809-26.427-19.026-41.875-3.167-11.6-5.555-28.935,1.055-45.622,6.073-15.331,19.378-26.768,33.9-29.138a.8.8,0,1,1,.259,1.588c-13.971,2.281-26.79,13.327-32.659,28.143-6.447,16.275-4.1,33.24-1,44.606,4.167,15.264,11.924,29.423,18.868,41.5a.8.8,0,0,1-.7,1.206" transform="translate(-241.376 -1086.071)" fill="#6fccde"/><path d="M521.543,1240.36a4.89,4.89,0,0,1,4.092,8.648l-.106.08c-11.7,8.774-23.682,17.7-37.6,22.184a104.969,104.969,0,0,1,57.6-1.906,4.9,4.9,0,0,1,3.687,5.164l-.137,1.609c-.379,4.445-39.826,9.664-44.526,10.262a220.723,220.723,0,0,1-47.038,1.12c-12.063-1.061-10.147-5.326-1.881-11.839a276.759,276.759,0,0,1,30.224-20.847,131.348,131.348,0,0,1,35.686-14.475" transform="translate(-344.508 -951.694)" fill="#c2e7f4"/><path d="M332.793,1663.215l-.049,0a.8.8,0,0,1-.755-.851,172.555,172.555,0,0,0-4.81-52c-1.276-5.124-2.871-10.491-5.88-15.026-3.239-4.88-7.826-8.09-12.586-8.806-4.851-.729-10.344,1.083-15.07,4.973-4.326,3.561-7.577,8.284-10.722,12.852a.8.8,0,1,1-1.325-.912c3.207-4.66,6.524-9.478,11.025-13.183,5.077-4.179,11.03-6.121,16.332-5.322,5.209.783,10.2,4.248,13.688,9.507,3.144,4.738,4.79,10.262,6.1,15.526a174.148,174.148,0,0,1,4.855,52.483.8.8,0,0,1-.8.757" transform="translate(-215.979 -1216.095)" fill="#6fccde"/><path d="M361.759,1482.976h-.011a.8.8,0,0,1-.793-.815,238.934,238.934,0,0,0-17-91.359c-3.368-8.4-8.2-19.2-15.754-28.281-7.494-9.008-16.918-15.127-26.537-17.228a.8.8,0,1,1,.343-1.572c9.967,2.177,19.709,8.489,27.431,17.771,7.7,9.251,12.6,20.2,16.011,28.711a240.567,240.567,0,0,1,17.11,91.98.8.8,0,0,1-.8.793" transform="translate(-231.004 -1031.111)" fill="#6fccde"/><path d="M446.5,1644.417a.794.794,0,0,1-.233-.035.8.8,0,0,1-.537-1c2.969-9.805,3.018-20.359,3.065-30.566.01-2.207.021-4.488.061-6.726.214-12.007,1.443-25.747,8.931-36.616a32.274,32.274,0,0,1,15.286-11.779c6.552-2.366,13.145-2.117,18.564.7a.8.8,0,0,1-.742,1.428c-11.146-5.792-25.176.973-31.784,10.565-7.245,10.517-8.437,23.965-8.647,35.732-.04,2.226-.05,4.5-.06,6.7-.048,10.322-.1,21-3.134,31.025a.8.8,0,0,1-.77.571" transform="translate(-342.014 -1194.085)" fill="#6fccde"/><path d="M399.732,1334.726a.805.805,0,0,1-.766-.558c-9.857-30.683-14.242-62.152-13.407-96.2.76-31.007,5.849-63.269,15.559-98.63a.8.8,0,1,1,1.551.426c-19.99,72.806-20.7,136.236-2.171,193.916a.8.8,0,0,1-.52,1.012.794.794,0,0,1-.246.039" transform="translate(-295.788 -873.831)" fill="#6fccde"/><path d="M13.414,1631.378c-5.608,5.282-11.376,11.685-13.268,18.827a4.089,4.089,0,0,0,5.74,4.747A170.091,170.091,0,0,0,68.97,1602.17,162.141,162.141,0,0,0,31.7,1666.66a3.961,3.961,0,0,0,5.288,4.825c6.021-2.5,10.923-8.575,14.693-14.3,12.643-19.187,26.735-41.776,32.862-64.131,6.36-23.21-35.556,8.755-40.908,12.8a365.537,365.537,0,0,0-30.223,25.522" transform="translate(0 -1216.03)" fill="#c2e7f4"/><path d="M633.105,1604a2.676,2.676,0,0,1-2.94,4.095,227.067,227.067,0,0,1-51.346-22.122,81.381,81.381,0,0,1,43.528,41.059,3.181,3.181,0,0,1-3.921,4.342c-13.3-4.653-25.291-12.845-35.678-22.447-12.059-11.146-22.167-24.2-32.214-37.192-5.633-7.283-9.378-19.384,3.749-19.4,10.51-.016,23.031,6.263,32.187,10.929A125.975,125.975,0,0,1,633.105,1604" transform="translate(-418.501 -1191.204)" fill="#c7e9f4"/><path d="M123.546,1223.3a4.857,4.857,0,0,1-3.028,7.252,176.81,176.81,0,0,1-69.155,2.755c-2.987-.476-6.892-2.406-5.609-5.394a3.662,3.662,0,0,1,1.711-1.776,83.316,83.316,0,0,1,50.621-8.166c-9.536-1.492-20.964-14.384-26.4-21.539-5.726-7.534-12.38-19.424,3.111-15.5,19.556,4.956,37.942,24.757,48.75,42.366" transform="translate(-34.918 -905.612)" fill="#c2e7f4"/><path d="M448.078,873.7c.842-2.255,3.41-4.929,5.091-3.086a2.577,2.577,0,0,1,.63,1.569,128.223,128.223,0,0,1-5.214,45.856,57.877,57.877,0,0,1,21.01-29.192,3.385,3.385,0,0,1,5.343,3.076c-.73,7.658-6.01,14.995-11.042,21.275-7.01,8.768-13.8,17.056-19.992,26.43-1.159,1.755-2.8,3.747-4.943,3.2a3.334,3.334,0,0,1-2.1-1.785,8.77,8.77,0,0,1-.44-5.037c2.29-21.106,4.171-42.259,11.657-62.311" transform="translate(-334.775 -667.605)" fill="#c2e7f4"/><path d="M401.019,1906.8v8.42c0,9.931-16.2,14.98-36.061,14.98S329,1925.152,329,1915.221v-8.42c0-1.992,3.231-3.608,7.216-3.608H393.8c3.985,0,7.216,1.615,7.216,3.608" transform="translate(-252.461 -1460.446)" fill="#f0b7b5"/><path d="M1080.814,1578.686H997.376a5.743,5.743,0,0,1-5.743-5.743v-4.971a5.743,5.743,0,0,1,5.743-5.743h83.438a5.743,5.743,0,0,1,5.743,5.743v4.971a5.743,5.743,0,0,1-5.743,5.743" transform="translate(-760.946 -1198.802)" fill="#27324b"/><path d="M1055.126,1608.239a2.776,2.776,0,1,0-5.553,0c0,.781-1.744,72.618-37.861,85.354h-9.21a4.632,4.632,0,0,0,0,9.264h15.741a4.625,4.625,0,0,0,3.334-7.833c32.5-20.5,33.548-86.016,33.548-86.786" transform="translate(-765.736 -1231.976)" fill="#27324b"/><path d="M1147.335,1608.239a2.776,2.776,0,1,1,5.553,0c0,.781,1.744,72.618,37.861,85.354h9.21a4.632,4.632,0,0,1,0,9.264h-15.741a4.625,4.625,0,0,1-3.334-7.833c-32.5-20.5-33.548-86.016-33.548-86.786" transform="translate(-880.427 -1231.976)" fill="#27324b"/></g></svg>