<svg xmlns="http://www.w3.org/2000/svg" xmlns:xlink="http://www.w3.org/1999/xlink" width="75.668" height="60.499" viewBox="0 0 75.668 60.499"><defs><clipPath id="a"><rect width="75.668" height="60.499" fill="#ae8b5c"/></clipPath></defs><g clip-path="url(#a)"><path d="M87.993,134.269q-10.676,0-21.352,0a6.8,6.8,0,0,1-5.672-2.553A6.926,6.926,0,0,1,59.54,127.3q-.015-6.184,0-12.37a6.7,6.7,0,0,1,7.123-7.1q19.5-.007,39,0a47.659,47.659,0,0,1,4.953.138,6.186,6.186,0,0,1,5.731,6.31c.07,4.516.082,9.035,0,13.551-.073,3.878-2.912,6.424-7,6.43q-10.676.017-21.352,0m-7.522-1.886V131.5c0-2.758-.005-5.516,0-8.274a7.434,7.434,0,0,1,2.925-6.168c1.388-1.082,2.8-2.131,4.183-3.218a.608.608,0,0,1,.889.017c1.365,1.067,2.754,2.1,4.123,3.167a7.479,7.479,0,0,1,2.964,6.23q0,4.137,0,8.274v.846h5.722v-.9q0-4.294,0-8.589a3.76,3.76,0,0,1,7.52.024q.006,4.294,0,8.589v.83a4.749,4.749,0,0,0,5.72-4.7q.013-6.422,0-12.844a4.752,4.752,0,0,0-5.119-5.1q-21.433-.006-42.867,0a4.871,4.871,0,0,0-5.165,5.194q-.008,6.185.005,12.371a6.742,6.742,0,0,0,.149,1.4,4.7,4.7,0,0,0,5.548,3.643c.01-.127.028-.257.028-.388,0-2.942-.018-5.884.01-8.825a3.817,3.817,0,0,1,3.817-3.89,3.627,3.627,0,0,1,3.685,3.926q-.006,4.216,0,8.431c0,.278.024.555.037.838Zm13.22.012c0-3.39.056-6.7-.027-10a4.574,4.574,0,0,0-1.607-3.406c-1.293-1.1-2.658-2.121-4.036-3.21-1.36,1.066-2.7,2.038-3.947,3.113a5.2,5.2,0,0,0-1.75,4.071c-.024,2.941-.008,5.883,0,8.824a6.021,6.021,0,0,0,.062.607Zm13.264,0c0-3.128,0-6.17,0-9.212,0-1.335-.7-2.121-1.884-2.143-1.209-.023-1.941.785-1.943,2.163q-.006,4.214,0,8.428v.764Zm-34.19,0c0-3.278.021-6.472-.015-9.666a1.58,1.58,0,0,0-1.217-1.559,1.942,1.942,0,0,0-2.59,2.051c-.018,2.856-.007,5.713,0,8.57a5.4,5.4,0,0,0,.068.6Z" transform="translate(-40.733 -73.779)" fill="#ae8b5c"/><path d="M1.857,19.716v.9q0,16.866,0,33.732a4.751,4.751,0,0,0,5.07,5.075c2.181.007,4.361,0,6.542,0a4.652,4.652,0,0,1,.63.011c.548.076.983.346.967.941-.015.548-.434.822-.951.876a10.015,10.015,0,0,1-1.181.015c-2.362-.034-4.739.088-7.082-.144C2.208,60.767.02,58.146.015,54.433Q0,43.4.012,32.365c0-5.7-.032-11.4.009-17.1a14.8,14.8,0,0,1,6.341-12.4A20.571,20.571,0,0,1,8.389,1.371a1.617,1.617,0,0,1,1.359-.12,21.424,21.424,0,0,1,5.445,4.365,14.825,14.825,0,0,1,3.433,9.505q0,9.064,0,18.127c0,.105,0,.21,0,.315.027.63-.2,1.1-.87,1.191-.551.071-.928-.423-.929-1.2q-.011-6.384,0-12.768V19.716Zm14.727-1.929c.055-.119.093-.165.094-.211.011-.682.022-1.364.023-2.045.009-5.458-2.483-9.459-7.129-12.192a.726.726,0,0,0-.617-.049c-3.042,1.926-5.51,4.333-6.641,7.887a19.14,19.14,0,0,0-.555,6.61Z" transform="translate(0 -0.784)" fill="#ae8b5c"/><path d="M94.244,2.444C89.4,8.1,83.026,11.519,76.907,15.285A31.875,31.875,0,0,0,74,17.169,9.013,9.013,0,0,0,71.88,29.286c.056.089.109.18.171.265A.939.939,0,0,1,71.84,31c-.555.388-1.008.025-1.32-.442a10.1,10.1,0,0,1-1.792-4.411c-.51-4.3.8-7.9,4.375-10.479,1.806-1.3,3.715-2.47,5.6-3.663,2.04-1.291,4.124-2.514,6.158-3.815A35.418,35.418,0,0,0,93.4.548c.541-.671,1.089-.739,1.563-.13,3.422,4.4,7.916,7.475,12.62,10.3,2.137,1.284,4.252,2.606,6.367,3.925a11.3,11.3,0,0,1,5.555,7.487,10.914,10.914,0,0,1-1.511,8.3,1.513,1.513,0,0,1-1.111.653c-.731-.044-.955-.835-.486-1.563A9.248,9.248,0,0,0,116.831,20a8.7,8.7,0,0,0-3.442-3.592c-2.338-1.458-4.718-2.851-7.059-4.305-4.38-2.722-8.667-5.568-12.086-9.66" transform="translate(-46.951 -0.001)" fill="#ae8b5c"/></g></svg>